<mxfile host="Electron" modified="2024-03-15T15:33:51.095Z" agent="Mozilla/5.0 (Windows NT 10.0; Win64; x64) AppleWebKit/537.36 (KHTML, like Gecko) draw.io/24.0.4 Chrome/120.0.6099.109 Electron/28.1.0 Safari/537.36" etag="x7kQYvLfxuLy762vzvbY" version="24.0.4" type="device">
  <diagram name="Pagina-1" id="R9lZxRtw1EbHrPNwV3Ke">
    <mxGraphModel dx="1862" dy="626" grid="0" gridSize="10" guides="1" tooltips="1" connect="1" arrows="1" fold="1" page="1" pageScale="1" pageWidth="827" pageHeight="1169" math="0" shadow="0">
      <root>
        <mxCell id="0" />
        <mxCell id="1" parent="0" />
        <mxCell id="gNrTe1KFX9AmqMrSOkW9-15" style="edgeStyle=orthogonalEdgeStyle;rounded=0;orthogonalLoop=1;jettySize=auto;html=1;entryX=0;entryY=0.5;entryDx=0;entryDy=0;" edge="1" parent="1" source="gNrTe1KFX9AmqMrSOkW9-1" target="gNrTe1KFX9AmqMrSOkW9-9">
          <mxGeometry relative="1" as="geometry" />
        </mxCell>
        <mxCell id="gNrTe1KFX9AmqMrSOkW9-16" style="edgeStyle=orthogonalEdgeStyle;rounded=0;orthogonalLoop=1;jettySize=auto;html=1;entryX=0;entryY=0.5;entryDx=0;entryDy=0;" edge="1" parent="1" source="gNrTe1KFX9AmqMrSOkW9-1" target="gNrTe1KFX9AmqMrSOkW9-11">
          <mxGeometry relative="1" as="geometry" />
        </mxCell>
        <mxCell id="gNrTe1KFX9AmqMrSOkW9-17" style="edgeStyle=orthogonalEdgeStyle;rounded=0;orthogonalLoop=1;jettySize=auto;html=1;entryX=0;entryY=0.5;entryDx=0;entryDy=0;" edge="1" parent="1" source="gNrTe1KFX9AmqMrSOkW9-1" target="gNrTe1KFX9AmqMrSOkW9-13">
          <mxGeometry relative="1" as="geometry" />
        </mxCell>
        <mxCell id="gNrTe1KFX9AmqMrSOkW9-35" style="edgeStyle=orthogonalEdgeStyle;rounded=0;orthogonalLoop=1;jettySize=auto;html=1;entryX=0;entryY=0.5;entryDx=0;entryDy=0;" edge="1" parent="1" source="gNrTe1KFX9AmqMrSOkW9-1" target="gNrTe1KFX9AmqMrSOkW9-33">
          <mxGeometry relative="1" as="geometry" />
        </mxCell>
        <mxCell id="gNrTe1KFX9AmqMrSOkW9-159" style="edgeStyle=orthogonalEdgeStyle;rounded=0;orthogonalLoop=1;jettySize=auto;html=1;exitX=0.25;exitY=1;exitDx=0;exitDy=0;entryX=0.5;entryY=0;entryDx=0;entryDy=0;endArrow=doubleBlock;endFill=1;" edge="1" parent="1" source="gNrTe1KFX9AmqMrSOkW9-1" target="gNrTe1KFX9AmqMrSOkW9-139">
          <mxGeometry relative="1" as="geometry">
            <Array as="points">
              <mxPoint x="-365" y="55" />
              <mxPoint x="-226" y="55" />
              <mxPoint x="-226" y="35" />
              <mxPoint x="-145" y="35" />
            </Array>
          </mxGeometry>
        </mxCell>
        <mxCell id="gNrTe1KFX9AmqMrSOkW9-164" style="edgeStyle=orthogonalEdgeStyle;rounded=0;orthogonalLoop=1;jettySize=auto;html=1;entryX=1;entryY=0.5;entryDx=0;entryDy=0;endArrow=doubleBlock;endFill=1;" edge="1" parent="1" source="gNrTe1KFX9AmqMrSOkW9-1" target="gNrTe1KFX9AmqMrSOkW9-162">
          <mxGeometry relative="1" as="geometry" />
        </mxCell>
        <mxCell id="gNrTe1KFX9AmqMrSOkW9-1" value="Cinema" style="rounded=0;whiteSpace=wrap;html=1;" vertex="1" parent="1">
          <mxGeometry x="-395" y="55" width="120" height="40" as="geometry" />
        </mxCell>
        <mxCell id="gNrTe1KFX9AmqMrSOkW9-28" style="edgeStyle=orthogonalEdgeStyle;rounded=0;orthogonalLoop=1;jettySize=auto;html=1;exitX=0.5;exitY=1;exitDx=0;exitDy=0;entryX=0;entryY=0.5;entryDx=0;entryDy=0;" edge="1" parent="1" source="gNrTe1KFX9AmqMrSOkW9-2" target="gNrTe1KFX9AmqMrSOkW9-18">
          <mxGeometry relative="1" as="geometry" />
        </mxCell>
        <mxCell id="gNrTe1KFX9AmqMrSOkW9-29" style="edgeStyle=orthogonalEdgeStyle;rounded=0;orthogonalLoop=1;jettySize=auto;html=1;entryX=0;entryY=0.5;entryDx=0;entryDy=0;" edge="1" parent="1" source="gNrTe1KFX9AmqMrSOkW9-2" target="gNrTe1KFX9AmqMrSOkW9-20">
          <mxGeometry relative="1" as="geometry" />
        </mxCell>
        <mxCell id="gNrTe1KFX9AmqMrSOkW9-30" style="edgeStyle=orthogonalEdgeStyle;rounded=0;orthogonalLoop=1;jettySize=auto;html=1;entryX=0;entryY=0.5;entryDx=0;entryDy=0;" edge="1" parent="1" source="gNrTe1KFX9AmqMrSOkW9-2" target="gNrTe1KFX9AmqMrSOkW9-22">
          <mxGeometry relative="1" as="geometry" />
        </mxCell>
        <mxCell id="gNrTe1KFX9AmqMrSOkW9-31" style="edgeStyle=orthogonalEdgeStyle;rounded=0;orthogonalLoop=1;jettySize=auto;html=1;entryX=0;entryY=0.5;entryDx=0;entryDy=0;" edge="1" parent="1" source="gNrTe1KFX9AmqMrSOkW9-2" target="gNrTe1KFX9AmqMrSOkW9-24">
          <mxGeometry relative="1" as="geometry" />
        </mxCell>
        <mxCell id="gNrTe1KFX9AmqMrSOkW9-32" style="edgeStyle=orthogonalEdgeStyle;rounded=0;orthogonalLoop=1;jettySize=auto;html=1;entryX=0;entryY=0.5;entryDx=0;entryDy=0;" edge="1" parent="1" source="gNrTe1KFX9AmqMrSOkW9-2" target="gNrTe1KFX9AmqMrSOkW9-26">
          <mxGeometry relative="1" as="geometry" />
        </mxCell>
        <mxCell id="gNrTe1KFX9AmqMrSOkW9-38" style="edgeStyle=orthogonalEdgeStyle;rounded=0;orthogonalLoop=1;jettySize=auto;html=1;entryX=0;entryY=0.5;entryDx=0;entryDy=0;" edge="1" parent="1" source="gNrTe1KFX9AmqMrSOkW9-2" target="gNrTe1KFX9AmqMrSOkW9-36">
          <mxGeometry relative="1" as="geometry" />
        </mxCell>
        <mxCell id="gNrTe1KFX9AmqMrSOkW9-163" style="edgeStyle=orthogonalEdgeStyle;rounded=0;orthogonalLoop=1;jettySize=auto;html=1;exitX=1;exitY=0.5;exitDx=0;exitDy=0;entryX=0;entryY=0.5;entryDx=0;entryDy=0;endArrow=doubleBlock;endFill=1;" edge="1" parent="1" source="gNrTe1KFX9AmqMrSOkW9-2" target="gNrTe1KFX9AmqMrSOkW9-162">
          <mxGeometry relative="1" as="geometry" />
        </mxCell>
        <mxCell id="gNrTe1KFX9AmqMrSOkW9-166" style="edgeStyle=orthogonalEdgeStyle;rounded=0;orthogonalLoop=1;jettySize=auto;html=1;exitX=0.25;exitY=1;exitDx=0;exitDy=0;entryX=0;entryY=0.5;entryDx=0;entryDy=0;endArrow=doubleBlock;endFill=1;" edge="1" parent="1" source="gNrTe1KFX9AmqMrSOkW9-2" target="gNrTe1KFX9AmqMrSOkW9-4">
          <mxGeometry relative="1" as="geometry" />
        </mxCell>
        <mxCell id="gNrTe1KFX9AmqMrSOkW9-2" value="Theater" style="rounded=0;whiteSpace=wrap;html=1;" vertex="1" parent="1">
          <mxGeometry x="-827" y="55" width="120" height="40" as="geometry" />
        </mxCell>
        <mxCell id="gNrTe1KFX9AmqMrSOkW9-51" style="edgeStyle=orthogonalEdgeStyle;rounded=0;orthogonalLoop=1;jettySize=auto;html=1;entryX=0;entryY=0.5;entryDx=0;entryDy=0;" edge="1" parent="1" source="gNrTe1KFX9AmqMrSOkW9-3" target="gNrTe1KFX9AmqMrSOkW9-49">
          <mxGeometry relative="1" as="geometry" />
        </mxCell>
        <mxCell id="gNrTe1KFX9AmqMrSOkW9-52" style="edgeStyle=orthogonalEdgeStyle;rounded=0;orthogonalLoop=1;jettySize=auto;html=1;entryX=0;entryY=0.5;entryDx=0;entryDy=0;" edge="1" parent="1" source="gNrTe1KFX9AmqMrSOkW9-3" target="gNrTe1KFX9AmqMrSOkW9-39">
          <mxGeometry relative="1" as="geometry" />
        </mxCell>
        <mxCell id="gNrTe1KFX9AmqMrSOkW9-54" style="edgeStyle=orthogonalEdgeStyle;rounded=0;orthogonalLoop=1;jettySize=auto;html=1;entryX=0;entryY=0.5;entryDx=0;entryDy=0;" edge="1" parent="1" source="gNrTe1KFX9AmqMrSOkW9-3" target="gNrTe1KFX9AmqMrSOkW9-43">
          <mxGeometry relative="1" as="geometry" />
        </mxCell>
        <mxCell id="gNrTe1KFX9AmqMrSOkW9-55" style="edgeStyle=orthogonalEdgeStyle;rounded=0;orthogonalLoop=1;jettySize=auto;html=1;entryX=0;entryY=0.5;entryDx=0;entryDy=0;" edge="1" parent="1" source="gNrTe1KFX9AmqMrSOkW9-3" target="gNrTe1KFX9AmqMrSOkW9-45">
          <mxGeometry relative="1" as="geometry" />
        </mxCell>
        <mxCell id="gNrTe1KFX9AmqMrSOkW9-56" style="edgeStyle=orthogonalEdgeStyle;rounded=0;orthogonalLoop=1;jettySize=auto;html=1;entryX=0;entryY=0.5;entryDx=0;entryDy=0;" edge="1" parent="1" source="gNrTe1KFX9AmqMrSOkW9-3" target="gNrTe1KFX9AmqMrSOkW9-47">
          <mxGeometry relative="1" as="geometry" />
        </mxCell>
        <mxCell id="gNrTe1KFX9AmqMrSOkW9-167" style="edgeStyle=orthogonalEdgeStyle;rounded=0;orthogonalLoop=1;jettySize=auto;html=1;entryX=0.25;entryY=1;entryDx=0;entryDy=0;endArrow=doubleBlock;endFill=1;" edge="1" parent="1" source="gNrTe1KFX9AmqMrSOkW9-3" target="gNrTe1KFX9AmqMrSOkW9-4">
          <mxGeometry relative="1" as="geometry" />
        </mxCell>
        <mxCell id="gNrTe1KFX9AmqMrSOkW9-174" style="edgeStyle=orthogonalEdgeStyle;rounded=0;orthogonalLoop=1;jettySize=auto;html=1;exitX=1;exitY=0.5;exitDx=0;exitDy=0;endArrow=doubleBlock;endFill=1;" edge="1" parent="1" source="gNrTe1KFX9AmqMrSOkW9-3" target="gNrTe1KFX9AmqMrSOkW9-7">
          <mxGeometry relative="1" as="geometry" />
        </mxCell>
        <mxCell id="gNrTe1KFX9AmqMrSOkW9-3" value="Movie" style="rounded=0;whiteSpace=wrap;html=1;" vertex="1" parent="1">
          <mxGeometry x="-816" y="681" width="120" height="40" as="geometry" />
        </mxCell>
        <mxCell id="gNrTe1KFX9AmqMrSOkW9-67" style="edgeStyle=orthogonalEdgeStyle;rounded=0;orthogonalLoop=1;jettySize=auto;html=1;entryX=0;entryY=0.5;entryDx=0;entryDy=0;" edge="1" parent="1" source="gNrTe1KFX9AmqMrSOkW9-4" target="gNrTe1KFX9AmqMrSOkW9-57">
          <mxGeometry relative="1" as="geometry" />
        </mxCell>
        <mxCell id="gNrTe1KFX9AmqMrSOkW9-68" style="edgeStyle=orthogonalEdgeStyle;rounded=0;orthogonalLoop=1;jettySize=auto;html=1;entryX=0;entryY=0.5;entryDx=0;entryDy=0;" edge="1" parent="1" source="gNrTe1KFX9AmqMrSOkW9-4" target="gNrTe1KFX9AmqMrSOkW9-59">
          <mxGeometry relative="1" as="geometry" />
        </mxCell>
        <mxCell id="gNrTe1KFX9AmqMrSOkW9-69" style="edgeStyle=orthogonalEdgeStyle;rounded=0;orthogonalLoop=1;jettySize=auto;html=1;entryX=0;entryY=0.5;entryDx=0;entryDy=0;" edge="1" parent="1" source="gNrTe1KFX9AmqMrSOkW9-4" target="gNrTe1KFX9AmqMrSOkW9-61">
          <mxGeometry relative="1" as="geometry" />
        </mxCell>
        <mxCell id="gNrTe1KFX9AmqMrSOkW9-70" style="edgeStyle=orthogonalEdgeStyle;rounded=0;orthogonalLoop=1;jettySize=auto;html=1;entryX=0;entryY=0.5;entryDx=0;entryDy=0;" edge="1" parent="1" source="gNrTe1KFX9AmqMrSOkW9-4" target="gNrTe1KFX9AmqMrSOkW9-63">
          <mxGeometry relative="1" as="geometry" />
        </mxCell>
        <mxCell id="gNrTe1KFX9AmqMrSOkW9-71" style="edgeStyle=orthogonalEdgeStyle;rounded=0;orthogonalLoop=1;jettySize=auto;html=1;entryX=0;entryY=0.5;entryDx=0;entryDy=0;" edge="1" parent="1" source="gNrTe1KFX9AmqMrSOkW9-4" target="gNrTe1KFX9AmqMrSOkW9-64">
          <mxGeometry relative="1" as="geometry" />
        </mxCell>
        <mxCell id="gNrTe1KFX9AmqMrSOkW9-172" style="edgeStyle=orthogonalEdgeStyle;rounded=0;orthogonalLoop=1;jettySize=auto;html=1;exitX=1;exitY=0.5;exitDx=0;exitDy=0;endArrow=doubleBlock;endFill=1;" edge="1" parent="1" source="gNrTe1KFX9AmqMrSOkW9-4" target="gNrTe1KFX9AmqMrSOkW9-170">
          <mxGeometry relative="1" as="geometry" />
        </mxCell>
        <mxCell id="gNrTe1KFX9AmqMrSOkW9-4" value="Showtime&amp;nbsp;" style="rounded=0;whiteSpace=wrap;html=1;" vertex="1" parent="1">
          <mxGeometry x="-701" y="389" width="120" height="40" as="geometry" />
        </mxCell>
        <mxCell id="gNrTe1KFX9AmqMrSOkW9-82" style="edgeStyle=orthogonalEdgeStyle;rounded=0;orthogonalLoop=1;jettySize=auto;html=1;entryX=0;entryY=0.5;entryDx=0;entryDy=0;" edge="1" parent="1" source="gNrTe1KFX9AmqMrSOkW9-5" target="gNrTe1KFX9AmqMrSOkW9-72">
          <mxGeometry relative="1" as="geometry" />
        </mxCell>
        <mxCell id="gNrTe1KFX9AmqMrSOkW9-83" style="edgeStyle=orthogonalEdgeStyle;rounded=0;orthogonalLoop=1;jettySize=auto;html=1;entryX=0;entryY=0.5;entryDx=0;entryDy=0;" edge="1" parent="1" source="gNrTe1KFX9AmqMrSOkW9-5" target="gNrTe1KFX9AmqMrSOkW9-74">
          <mxGeometry relative="1" as="geometry" />
        </mxCell>
        <mxCell id="gNrTe1KFX9AmqMrSOkW9-84" style="edgeStyle=orthogonalEdgeStyle;rounded=0;orthogonalLoop=1;jettySize=auto;html=1;entryX=0;entryY=0.5;entryDx=0;entryDy=0;" edge="1" parent="1" source="gNrTe1KFX9AmqMrSOkW9-5" target="gNrTe1KFX9AmqMrSOkW9-76">
          <mxGeometry relative="1" as="geometry" />
        </mxCell>
        <mxCell id="gNrTe1KFX9AmqMrSOkW9-85" style="edgeStyle=orthogonalEdgeStyle;rounded=0;orthogonalLoop=1;jettySize=auto;html=1;entryX=0;entryY=0.5;entryDx=0;entryDy=0;" edge="1" parent="1" source="gNrTe1KFX9AmqMrSOkW9-5" target="gNrTe1KFX9AmqMrSOkW9-78">
          <mxGeometry relative="1" as="geometry" />
        </mxCell>
        <mxCell id="gNrTe1KFX9AmqMrSOkW9-86" style="edgeStyle=orthogonalEdgeStyle;rounded=0;orthogonalLoop=1;jettySize=auto;html=1;entryX=0;entryY=0.5;entryDx=0;entryDy=0;" edge="1" parent="1" source="gNrTe1KFX9AmqMrSOkW9-5" target="gNrTe1KFX9AmqMrSOkW9-80">
          <mxGeometry relative="1" as="geometry" />
        </mxCell>
        <mxCell id="gNrTe1KFX9AmqMrSOkW9-171" style="edgeStyle=orthogonalEdgeStyle;rounded=0;orthogonalLoop=1;jettySize=auto;html=1;exitX=0;exitY=0.5;exitDx=0;exitDy=0;entryX=1;entryY=0.5;entryDx=0;entryDy=0;" edge="1" parent="1" source="gNrTe1KFX9AmqMrSOkW9-5" target="gNrTe1KFX9AmqMrSOkW9-170">
          <mxGeometry relative="1" as="geometry" />
        </mxCell>
        <mxCell id="gNrTe1KFX9AmqMrSOkW9-5" value="Ticket" style="rounded=0;whiteSpace=wrap;html=1;" vertex="1" parent="1">
          <mxGeometry x="-280.5" y="389" width="120" height="40" as="geometry" />
        </mxCell>
        <mxCell id="gNrTe1KFX9AmqMrSOkW9-97" style="edgeStyle=orthogonalEdgeStyle;rounded=0;orthogonalLoop=1;jettySize=auto;html=1;entryX=0;entryY=0.5;entryDx=0;entryDy=0;" edge="1" parent="1" source="gNrTe1KFX9AmqMrSOkW9-6" target="gNrTe1KFX9AmqMrSOkW9-87">
          <mxGeometry relative="1" as="geometry" />
        </mxCell>
        <mxCell id="gNrTe1KFX9AmqMrSOkW9-98" style="edgeStyle=orthogonalEdgeStyle;rounded=0;orthogonalLoop=1;jettySize=auto;html=1;entryX=0;entryY=0.5;entryDx=0;entryDy=0;" edge="1" parent="1" source="gNrTe1KFX9AmqMrSOkW9-6" target="gNrTe1KFX9AmqMrSOkW9-89">
          <mxGeometry relative="1" as="geometry" />
        </mxCell>
        <mxCell id="gNrTe1KFX9AmqMrSOkW9-99" style="edgeStyle=orthogonalEdgeStyle;rounded=0;orthogonalLoop=1;jettySize=auto;html=1;entryX=0;entryY=0.5;entryDx=0;entryDy=0;" edge="1" parent="1" source="gNrTe1KFX9AmqMrSOkW9-6" target="gNrTe1KFX9AmqMrSOkW9-91">
          <mxGeometry relative="1" as="geometry" />
        </mxCell>
        <mxCell id="gNrTe1KFX9AmqMrSOkW9-100" style="edgeStyle=orthogonalEdgeStyle;rounded=0;orthogonalLoop=1;jettySize=auto;html=1;entryX=0;entryY=0.5;entryDx=0;entryDy=0;" edge="1" parent="1" source="gNrTe1KFX9AmqMrSOkW9-6" target="gNrTe1KFX9AmqMrSOkW9-93">
          <mxGeometry relative="1" as="geometry" />
        </mxCell>
        <mxCell id="gNrTe1KFX9AmqMrSOkW9-101" style="edgeStyle=orthogonalEdgeStyle;rounded=0;orthogonalLoop=1;jettySize=auto;html=1;entryX=0;entryY=0.5;entryDx=0;entryDy=0;" edge="1" parent="1" source="gNrTe1KFX9AmqMrSOkW9-6" target="gNrTe1KFX9AmqMrSOkW9-95">
          <mxGeometry relative="1" as="geometry" />
        </mxCell>
        <mxCell id="gNrTe1KFX9AmqMrSOkW9-175" style="edgeStyle=orthogonalEdgeStyle;rounded=0;orthogonalLoop=1;jettySize=auto;html=1;entryX=1;entryY=0.5;entryDx=0;entryDy=0;" edge="1" parent="1" source="gNrTe1KFX9AmqMrSOkW9-6" target="gNrTe1KFX9AmqMrSOkW9-7">
          <mxGeometry relative="1" as="geometry" />
        </mxCell>
        <mxCell id="gNrTe1KFX9AmqMrSOkW9-6" value="Customer" style="rounded=0;whiteSpace=wrap;html=1;" vertex="1" parent="1">
          <mxGeometry x="-188" y="681" width="120" height="40" as="geometry" />
        </mxCell>
        <mxCell id="gNrTe1KFX9AmqMrSOkW9-114" style="edgeStyle=orthogonalEdgeStyle;rounded=0;orthogonalLoop=1;jettySize=auto;html=1;entryX=0;entryY=0.5;entryDx=0;entryDy=0;" edge="1" parent="1" source="gNrTe1KFX9AmqMrSOkW9-7" target="gNrTe1KFX9AmqMrSOkW9-102">
          <mxGeometry relative="1" as="geometry" />
        </mxCell>
        <mxCell id="gNrTe1KFX9AmqMrSOkW9-115" style="edgeStyle=orthogonalEdgeStyle;rounded=0;orthogonalLoop=1;jettySize=auto;html=1;entryX=0;entryY=0.5;entryDx=0;entryDy=0;" edge="1" parent="1" source="gNrTe1KFX9AmqMrSOkW9-7" target="gNrTe1KFX9AmqMrSOkW9-104">
          <mxGeometry relative="1" as="geometry" />
        </mxCell>
        <mxCell id="gNrTe1KFX9AmqMrSOkW9-116" style="edgeStyle=orthogonalEdgeStyle;rounded=0;orthogonalLoop=1;jettySize=auto;html=1;entryX=0;entryY=0.5;entryDx=0;entryDy=0;" edge="1" parent="1" source="gNrTe1KFX9AmqMrSOkW9-7" target="gNrTe1KFX9AmqMrSOkW9-106">
          <mxGeometry relative="1" as="geometry" />
        </mxCell>
        <mxCell id="gNrTe1KFX9AmqMrSOkW9-117" style="edgeStyle=orthogonalEdgeStyle;rounded=0;orthogonalLoop=1;jettySize=auto;html=1;entryX=0;entryY=0.5;entryDx=0;entryDy=0;" edge="1" parent="1" source="gNrTe1KFX9AmqMrSOkW9-7" target="gNrTe1KFX9AmqMrSOkW9-108">
          <mxGeometry relative="1" as="geometry" />
        </mxCell>
        <mxCell id="gNrTe1KFX9AmqMrSOkW9-118" style="edgeStyle=orthogonalEdgeStyle;rounded=0;orthogonalLoop=1;jettySize=auto;html=1;entryX=0;entryY=0.5;entryDx=0;entryDy=0;" edge="1" parent="1" source="gNrTe1KFX9AmqMrSOkW9-7" target="gNrTe1KFX9AmqMrSOkW9-110">
          <mxGeometry relative="1" as="geometry" />
        </mxCell>
        <mxCell id="gNrTe1KFX9AmqMrSOkW9-119" style="edgeStyle=orthogonalEdgeStyle;rounded=0;orthogonalLoop=1;jettySize=auto;html=1;entryX=0;entryY=0.5;entryDx=0;entryDy=0;" edge="1" parent="1" source="gNrTe1KFX9AmqMrSOkW9-7" target="gNrTe1KFX9AmqMrSOkW9-112">
          <mxGeometry relative="1" as="geometry" />
        </mxCell>
        <mxCell id="gNrTe1KFX9AmqMrSOkW9-7" value="Review" style="rounded=0;whiteSpace=wrap;html=1;" vertex="1" parent="1">
          <mxGeometry x="-512.25" y="681" width="120" height="40" as="geometry" />
        </mxCell>
        <mxCell id="gNrTe1KFX9AmqMrSOkW9-9" value="" style="ellipse;whiteSpace=wrap;html=1;aspect=fixed;" vertex="1" parent="1">
          <mxGeometry x="-302" y="135" width="29" height="29" as="geometry" />
        </mxCell>
        <mxCell id="gNrTe1KFX9AmqMrSOkW9-10" value="Name" style="text;html=1;align=center;verticalAlign=middle;resizable=0;points=[];autosize=1;strokeColor=none;fillColor=none;" vertex="1" parent="1">
          <mxGeometry x="-277" y="142" width="50" height="26" as="geometry" />
        </mxCell>
        <mxCell id="gNrTe1KFX9AmqMrSOkW9-11" value="" style="ellipse;whiteSpace=wrap;html=1;aspect=fixed;" vertex="1" parent="1">
          <mxGeometry x="-302" y="169.5" width="29" height="29" as="geometry" />
        </mxCell>
        <mxCell id="gNrTe1KFX9AmqMrSOkW9-12" value="Address" style="text;html=1;align=center;verticalAlign=middle;resizable=0;points=[];autosize=1;strokeColor=none;fillColor=none;" vertex="1" parent="1">
          <mxGeometry x="-277" y="177" width="62" height="26" as="geometry" />
        </mxCell>
        <mxCell id="gNrTe1KFX9AmqMrSOkW9-13" value="" style="ellipse;whiteSpace=wrap;html=1;aspect=fixed;" vertex="1" parent="1">
          <mxGeometry x="-302" y="203" width="29" height="29" as="geometry" />
        </mxCell>
        <mxCell id="gNrTe1KFX9AmqMrSOkW9-14" value="Phone" style="text;html=1;align=center;verticalAlign=middle;resizable=0;points=[];autosize=1;strokeColor=none;fillColor=none;" vertex="1" parent="1">
          <mxGeometry x="-277" y="209" width="53" height="26" as="geometry" />
        </mxCell>
        <mxCell id="gNrTe1KFX9AmqMrSOkW9-18" value="" style="ellipse;whiteSpace=wrap;html=1;aspect=fixed;" vertex="1" parent="1">
          <mxGeometry x="-726" y="135" width="29" height="29" as="geometry" />
        </mxCell>
        <mxCell id="gNrTe1KFX9AmqMrSOkW9-19" value="CinemaID" style="text;html=1;align=center;verticalAlign=middle;resizable=0;points=[];autosize=1;strokeColor=none;fillColor=none;" vertex="1" parent="1">
          <mxGeometry x="-701" y="139" width="71" height="26" as="geometry" />
        </mxCell>
        <mxCell id="gNrTe1KFX9AmqMrSOkW9-20" value="" style="ellipse;whiteSpace=wrap;html=1;aspect=fixed;" vertex="1" parent="1">
          <mxGeometry x="-726" y="169.5" width="29" height="29" as="geometry" />
        </mxCell>
        <mxCell id="gNrTe1KFX9AmqMrSOkW9-21" value="Address" style="text;html=1;align=center;verticalAlign=middle;resizable=0;points=[];autosize=1;strokeColor=none;fillColor=none;" vertex="1" parent="1">
          <mxGeometry x="-701" y="177" width="62" height="26" as="geometry" />
        </mxCell>
        <mxCell id="gNrTe1KFX9AmqMrSOkW9-22" value="" style="ellipse;whiteSpace=wrap;html=1;aspect=fixed;" vertex="1" parent="1">
          <mxGeometry x="-726" y="208" width="29" height="29" as="geometry" />
        </mxCell>
        <mxCell id="gNrTe1KFX9AmqMrSOkW9-23" value="Name" style="text;html=1;align=center;verticalAlign=middle;resizable=0;points=[];autosize=1;strokeColor=none;fillColor=none;" vertex="1" parent="1">
          <mxGeometry x="-699" y="214" width="50" height="26" as="geometry" />
        </mxCell>
        <mxCell id="gNrTe1KFX9AmqMrSOkW9-24" value="" style="ellipse;whiteSpace=wrap;html=1;aspect=fixed;" vertex="1" parent="1">
          <mxGeometry x="-726" y="242" width="29" height="29" as="geometry" />
        </mxCell>
        <mxCell id="gNrTe1KFX9AmqMrSOkW9-25" value="Capacity" style="text;html=1;align=center;verticalAlign=middle;resizable=0;points=[];autosize=1;strokeColor=none;fillColor=none;" vertex="1" parent="1">
          <mxGeometry x="-701" y="247" width="65" height="26" as="geometry" />
        </mxCell>
        <mxCell id="gNrTe1KFX9AmqMrSOkW9-26" value="" style="ellipse;whiteSpace=wrap;html=1;aspect=fixed;" vertex="1" parent="1">
          <mxGeometry x="-726" y="277" width="29" height="29" as="geometry" />
        </mxCell>
        <mxCell id="gNrTe1KFX9AmqMrSOkW9-27" value="ScreenType" style="text;html=1;align=center;verticalAlign=middle;resizable=0;points=[];autosize=1;strokeColor=none;fillColor=none;" vertex="1" parent="1">
          <mxGeometry x="-701" y="284" width="82" height="26" as="geometry" />
        </mxCell>
        <mxCell id="gNrTe1KFX9AmqMrSOkW9-33" value="" style="ellipse;whiteSpace=wrap;html=1;aspect=fixed;" vertex="1" parent="1">
          <mxGeometry x="-302" y="102" width="29" height="29" as="geometry" />
        </mxCell>
        <mxCell id="gNrTe1KFX9AmqMrSOkW9-34" value="&amp;nbsp; CinemaID" style="text;html=1;align=center;verticalAlign=middle;resizable=0;points=[];autosize=1;strokeColor=none;fillColor=none;" vertex="1" parent="1">
          <mxGeometry x="-287" y="105" width="78" height="26" as="geometry" />
        </mxCell>
        <mxCell id="gNrTe1KFX9AmqMrSOkW9-36" value="" style="ellipse;whiteSpace=wrap;html=1;aspect=fixed;" vertex="1" parent="1">
          <mxGeometry x="-728" y="102" width="29" height="29" as="geometry" />
        </mxCell>
        <mxCell id="gNrTe1KFX9AmqMrSOkW9-37" value="&lt;span style=&quot;text-wrap: wrap;&quot;&gt;TheaterID&lt;/span&gt;" style="text;html=1;align=center;verticalAlign=middle;resizable=0;points=[];autosize=1;strokeColor=none;fillColor=none;" vertex="1" parent="1">
          <mxGeometry x="-703" y="106" width="71" height="26" as="geometry" />
        </mxCell>
        <mxCell id="gNrTe1KFX9AmqMrSOkW9-39" value="" style="ellipse;whiteSpace=wrap;html=1;aspect=fixed;" vertex="1" parent="1">
          <mxGeometry x="-717" y="772.5" width="29" height="29" as="geometry" />
        </mxCell>
        <mxCell id="gNrTe1KFX9AmqMrSOkW9-40" value="Title" style="text;html=1;align=center;verticalAlign=middle;resizable=0;points=[];autosize=1;strokeColor=none;fillColor=none;" vertex="1" parent="1">
          <mxGeometry x="-688" y="775.5" width="40" height="26" as="geometry" />
        </mxCell>
        <mxCell id="gNrTe1KFX9AmqMrSOkW9-41" value="" style="ellipse;whiteSpace=wrap;html=1;aspect=fixed;" vertex="1" parent="1">
          <mxGeometry x="-717" y="807" width="29" height="29" as="geometry" />
        </mxCell>
        <mxCell id="gNrTe1KFX9AmqMrSOkW9-42" value="Director" style="text;html=1;align=center;verticalAlign=middle;resizable=0;points=[];autosize=1;strokeColor=none;fillColor=none;" vertex="1" parent="1">
          <mxGeometry x="-691" y="814.5" width="60" height="26" as="geometry" />
        </mxCell>
        <mxCell id="gNrTe1KFX9AmqMrSOkW9-43" value="" style="ellipse;whiteSpace=wrap;html=1;aspect=fixed;" vertex="1" parent="1">
          <mxGeometry x="-717" y="845.5" width="29" height="29" as="geometry" />
        </mxCell>
        <mxCell id="gNrTe1KFX9AmqMrSOkW9-44" value="ReleaseDate" style="text;html=1;align=center;verticalAlign=middle;resizable=0;points=[];autosize=1;strokeColor=none;fillColor=none;" vertex="1" parent="1">
          <mxGeometry x="-694.5" y="848.5" width="87" height="26" as="geometry" />
        </mxCell>
        <mxCell id="gNrTe1KFX9AmqMrSOkW9-45" value="" style="ellipse;whiteSpace=wrap;html=1;aspect=fixed;" vertex="1" parent="1">
          <mxGeometry x="-717" y="879.5" width="29" height="29" as="geometry" />
        </mxCell>
        <mxCell id="gNrTe1KFX9AmqMrSOkW9-46" value="DurationMinutes" style="text;html=1;align=center;verticalAlign=middle;resizable=0;points=[];autosize=1;strokeColor=none;fillColor=none;" vertex="1" parent="1">
          <mxGeometry x="-694.5" y="884" width="105" height="26" as="geometry" />
        </mxCell>
        <mxCell id="gNrTe1KFX9AmqMrSOkW9-47" value="" style="ellipse;whiteSpace=wrap;html=1;aspect=fixed;" vertex="1" parent="1">
          <mxGeometry x="-717" y="914.5" width="29" height="29" as="geometry" />
        </mxCell>
        <mxCell id="gNrTe1KFX9AmqMrSOkW9-48" value="Rating" style="text;html=1;align=center;verticalAlign=middle;resizable=0;points=[];autosize=1;strokeColor=none;fillColor=none;" vertex="1" parent="1">
          <mxGeometry x="-690" y="916" width="53" height="26" as="geometry" />
        </mxCell>
        <mxCell id="gNrTe1KFX9AmqMrSOkW9-49" value="" style="ellipse;whiteSpace=wrap;html=1;aspect=fixed;" vertex="1" parent="1">
          <mxGeometry x="-719" y="739.5" width="29" height="29" as="geometry" />
        </mxCell>
        <mxCell id="gNrTe1KFX9AmqMrSOkW9-50" value="&lt;span style=&quot;text-wrap: wrap;&quot;&gt;MovieID&lt;/span&gt;" style="text;html=1;align=center;verticalAlign=middle;resizable=0;points=[];autosize=1;strokeColor=none;fillColor=none;" vertex="1" parent="1">
          <mxGeometry x="-689" y="743.5" width="62" height="26" as="geometry" />
        </mxCell>
        <mxCell id="gNrTe1KFX9AmqMrSOkW9-53" style="edgeStyle=orthogonalEdgeStyle;rounded=0;orthogonalLoop=1;jettySize=auto;html=1;entryX=0;entryY=0.621;entryDx=0;entryDy=0;entryPerimeter=0;" edge="1" parent="1" source="gNrTe1KFX9AmqMrSOkW9-3" target="gNrTe1KFX9AmqMrSOkW9-41">
          <mxGeometry relative="1" as="geometry" />
        </mxCell>
        <mxCell id="gNrTe1KFX9AmqMrSOkW9-57" value="" style="ellipse;whiteSpace=wrap;html=1;aspect=fixed;" vertex="1" parent="1">
          <mxGeometry x="-603.5" y="454" width="29" height="29" as="geometry" />
        </mxCell>
        <mxCell id="gNrTe1KFX9AmqMrSOkW9-58" value="ShowtimeID" style="text;html=1;align=center;verticalAlign=middle;resizable=0;points=[];autosize=1;strokeColor=none;fillColor=none;" vertex="1" parent="1">
          <mxGeometry x="-579" y="460" width="83" height="26" as="geometry" />
        </mxCell>
        <mxCell id="gNrTe1KFX9AmqMrSOkW9-59" value="" style="ellipse;whiteSpace=wrap;html=1;aspect=fixed;" vertex="1" parent="1">
          <mxGeometry x="-603.5" y="488.5" width="29" height="29" as="geometry" />
        </mxCell>
        <mxCell id="gNrTe1KFX9AmqMrSOkW9-60" value="MovieID" style="text;html=1;align=center;verticalAlign=middle;resizable=0;points=[];autosize=1;strokeColor=none;fillColor=none;" vertex="1" parent="1">
          <mxGeometry x="-578.5" y="496" width="62" height="26" as="geometry" />
        </mxCell>
        <mxCell id="gNrTe1KFX9AmqMrSOkW9-61" value="" style="ellipse;whiteSpace=wrap;html=1;aspect=fixed;" vertex="1" parent="1">
          <mxGeometry x="-603.5" y="527" width="29" height="29" as="geometry" />
        </mxCell>
        <mxCell id="gNrTe1KFX9AmqMrSOkW9-62" value="TheaterID" style="text;html=1;align=center;verticalAlign=middle;resizable=0;points=[];autosize=1;strokeColor=none;fillColor=none;" vertex="1" parent="1">
          <mxGeometry x="-581" y="528.5" width="71" height="26" as="geometry" />
        </mxCell>
        <mxCell id="gNrTe1KFX9AmqMrSOkW9-63" value="" style="ellipse;whiteSpace=wrap;html=1;aspect=fixed;" vertex="1" parent="1">
          <mxGeometry x="-603.5" y="561" width="29" height="29" as="geometry" />
        </mxCell>
        <mxCell id="gNrTe1KFX9AmqMrSOkW9-64" value="" style="ellipse;whiteSpace=wrap;html=1;aspect=fixed;" vertex="1" parent="1">
          <mxGeometry x="-603.5" y="596" width="29" height="29" as="geometry" />
        </mxCell>
        <mxCell id="gNrTe1KFX9AmqMrSOkW9-65" value="Price" style="text;html=1;align=center;verticalAlign=middle;resizable=0;points=[];autosize=1;strokeColor=none;fillColor=none;" vertex="1" parent="1">
          <mxGeometry x="-572.5" y="597.5" width="45" height="26" as="geometry" />
        </mxCell>
        <mxCell id="gNrTe1KFX9AmqMrSOkW9-66" value="ShowDateTime" style="text;html=1;align=center;verticalAlign=middle;resizable=0;points=[];autosize=1;strokeColor=none;fillColor=none;" vertex="1" parent="1">
          <mxGeometry x="-583" y="564" width="100" height="26" as="geometry" />
        </mxCell>
        <mxCell id="gNrTe1KFX9AmqMrSOkW9-72" value="" style="ellipse;whiteSpace=wrap;html=1;aspect=fixed;" vertex="1" parent="1">
          <mxGeometry x="-191.5" y="459" width="29" height="29" as="geometry" />
        </mxCell>
        <mxCell id="gNrTe1KFX9AmqMrSOkW9-73" value="&amp;nbsp; TicketID" style="text;html=1;align=center;verticalAlign=middle;resizable=0;points=[];autosize=1;strokeColor=none;fillColor=none;" vertex="1" parent="1">
          <mxGeometry x="-176.5" y="462" width="68" height="26" as="geometry" />
        </mxCell>
        <mxCell id="gNrTe1KFX9AmqMrSOkW9-74" value="" style="ellipse;whiteSpace=wrap;html=1;aspect=fixed;" vertex="1" parent="1">
          <mxGeometry x="-191.5" y="493.5" width="29" height="29" as="geometry" />
        </mxCell>
        <mxCell id="gNrTe1KFX9AmqMrSOkW9-75" value="&amp;nbsp; &amp;nbsp; ShowtimeID" style="text;html=1;align=center;verticalAlign=middle;resizable=0;points=[];autosize=1;strokeColor=none;fillColor=none;" vertex="1" parent="1">
          <mxGeometry x="-183.5" y="501" width="96" height="26" as="geometry" />
        </mxCell>
        <mxCell id="gNrTe1KFX9AmqMrSOkW9-76" value="" style="ellipse;whiteSpace=wrap;html=1;aspect=fixed;" vertex="1" parent="1">
          <mxGeometry x="-191.5" y="532" width="29" height="29" as="geometry" />
        </mxCell>
        <mxCell id="gNrTe1KFX9AmqMrSOkW9-77" value="SeatNumber" style="text;html=1;align=center;verticalAlign=middle;resizable=0;points=[];autosize=1;strokeColor=none;fillColor=none;" vertex="1" parent="1">
          <mxGeometry x="-168" y="535" width="85" height="26" as="geometry" />
        </mxCell>
        <mxCell id="gNrTe1KFX9AmqMrSOkW9-78" value="" style="ellipse;whiteSpace=wrap;html=1;aspect=fixed;" vertex="1" parent="1">
          <mxGeometry x="-191.5" y="566" width="29" height="29" as="geometry" />
        </mxCell>
        <mxCell id="gNrTe1KFX9AmqMrSOkW9-79" value="PurchasedDateTime" style="text;html=1;align=center;verticalAlign=middle;resizable=0;points=[];autosize=1;strokeColor=none;fillColor=none;" vertex="1" parent="1">
          <mxGeometry x="-168" y="570" width="127" height="26" as="geometry" />
        </mxCell>
        <mxCell id="gNrTe1KFX9AmqMrSOkW9-80" value="" style="ellipse;whiteSpace=wrap;html=1;aspect=fixed;" vertex="1" parent="1">
          <mxGeometry x="-191.5" y="601" width="29" height="29" as="geometry" />
        </mxCell>
        <mxCell id="gNrTe1KFX9AmqMrSOkW9-81" value="CustomerID" style="text;html=1;align=center;verticalAlign=middle;resizable=0;points=[];autosize=1;strokeColor=none;fillColor=none;" vertex="1" parent="1">
          <mxGeometry x="-169.5" y="602.5" width="82" height="26" as="geometry" />
        </mxCell>
        <mxCell id="gNrTe1KFX9AmqMrSOkW9-87" value="" style="ellipse;whiteSpace=wrap;html=1;aspect=fixed;" vertex="1" parent="1">
          <mxGeometry x="-105" y="750" width="29" height="29" as="geometry" />
        </mxCell>
        <mxCell id="gNrTe1KFX9AmqMrSOkW9-88" value="CustomerID" style="text;html=1;align=center;verticalAlign=middle;resizable=0;points=[];autosize=1;strokeColor=none;fillColor=none;" vertex="1" parent="1">
          <mxGeometry x="-80" y="754" width="82" height="26" as="geometry" />
        </mxCell>
        <mxCell id="gNrTe1KFX9AmqMrSOkW9-89" value="" style="ellipse;whiteSpace=wrap;html=1;aspect=fixed;" vertex="1" parent="1">
          <mxGeometry x="-105" y="784.5" width="29" height="29" as="geometry" />
        </mxCell>
        <mxCell id="gNrTe1KFX9AmqMrSOkW9-90" value="FirstName" style="text;html=1;align=center;verticalAlign=middle;resizable=0;points=[];autosize=1;strokeColor=none;fillColor=none;" vertex="1" parent="1">
          <mxGeometry x="-76" y="791" width="73" height="26" as="geometry" />
        </mxCell>
        <mxCell id="gNrTe1KFX9AmqMrSOkW9-91" value="" style="ellipse;whiteSpace=wrap;html=1;aspect=fixed;" vertex="1" parent="1">
          <mxGeometry x="-105" y="823" width="29" height="29" as="geometry" />
        </mxCell>
        <mxCell id="gNrTe1KFX9AmqMrSOkW9-92" value="LastName" style="text;html=1;align=center;verticalAlign=middle;resizable=0;points=[];autosize=1;strokeColor=none;fillColor=none;" vertex="1" parent="1">
          <mxGeometry x="-75.5" y="826" width="73" height="26" as="geometry" />
        </mxCell>
        <mxCell id="gNrTe1KFX9AmqMrSOkW9-93" value="" style="ellipse;whiteSpace=wrap;html=1;aspect=fixed;" vertex="1" parent="1">
          <mxGeometry x="-105" y="857" width="29" height="29" as="geometry" />
        </mxCell>
        <mxCell id="gNrTe1KFX9AmqMrSOkW9-94" value="Email" style="text;html=1;align=center;verticalAlign=middle;resizable=0;points=[];autosize=1;strokeColor=none;fillColor=none;" vertex="1" parent="1">
          <mxGeometry x="-68" y="859.5" width="48" height="26" as="geometry" />
        </mxCell>
        <mxCell id="gNrTe1KFX9AmqMrSOkW9-95" value="" style="ellipse;whiteSpace=wrap;html=1;aspect=fixed;" vertex="1" parent="1">
          <mxGeometry x="-105" y="892" width="29" height="29" as="geometry" />
        </mxCell>
        <mxCell id="gNrTe1KFX9AmqMrSOkW9-96" value="PhoneNumber" style="text;html=1;align=center;verticalAlign=middle;resizable=0;points=[];autosize=1;strokeColor=none;fillColor=none;" vertex="1" parent="1">
          <mxGeometry x="-82" y="893.5" width="95" height="26" as="geometry" />
        </mxCell>
        <mxCell id="gNrTe1KFX9AmqMrSOkW9-102" value="" style="ellipse;whiteSpace=wrap;html=1;aspect=fixed;" vertex="1" parent="1">
          <mxGeometry x="-430.25" y="750" width="29" height="29" as="geometry" />
        </mxCell>
        <mxCell id="gNrTe1KFX9AmqMrSOkW9-103" value="ReviewID" style="text;html=1;align=center;verticalAlign=middle;resizable=0;points=[];autosize=1;strokeColor=none;fillColor=none;" vertex="1" parent="1">
          <mxGeometry x="-398.25" y="754" width="69" height="26" as="geometry" />
        </mxCell>
        <mxCell id="gNrTe1KFX9AmqMrSOkW9-104" value="" style="ellipse;whiteSpace=wrap;html=1;aspect=fixed;" vertex="1" parent="1">
          <mxGeometry x="-430.25" y="784.5" width="29" height="29" as="geometry" />
        </mxCell>
        <mxCell id="gNrTe1KFX9AmqMrSOkW9-105" value="MovieID" style="text;html=1;align=center;verticalAlign=middle;resizable=0;points=[];autosize=1;strokeColor=none;fillColor=none;" vertex="1" parent="1">
          <mxGeometry x="-395.25" y="791" width="62" height="26" as="geometry" />
        </mxCell>
        <mxCell id="gNrTe1KFX9AmqMrSOkW9-106" value="" style="ellipse;whiteSpace=wrap;html=1;aspect=fixed;" vertex="1" parent="1">
          <mxGeometry x="-430.25" y="823" width="29" height="29" as="geometry" />
        </mxCell>
        <mxCell id="gNrTe1KFX9AmqMrSOkW9-107" value="CustomerID" style="text;html=1;align=center;verticalAlign=middle;resizable=0;points=[];autosize=1;strokeColor=none;fillColor=none;" vertex="1" parent="1">
          <mxGeometry x="-404.75" y="826" width="82" height="26" as="geometry" />
        </mxCell>
        <mxCell id="gNrTe1KFX9AmqMrSOkW9-108" value="" style="ellipse;whiteSpace=wrap;html=1;aspect=fixed;" vertex="1" parent="1">
          <mxGeometry x="-430.25" y="857" width="29" height="29" as="geometry" />
        </mxCell>
        <mxCell id="gNrTe1KFX9AmqMrSOkW9-109" value="ReviewText" style="text;html=1;align=center;verticalAlign=middle;resizable=0;points=[];autosize=1;strokeColor=none;fillColor=none;" vertex="1" parent="1">
          <mxGeometry x="-408.25" y="859.5" width="79" height="26" as="geometry" />
        </mxCell>
        <mxCell id="gNrTe1KFX9AmqMrSOkW9-110" value="" style="ellipse;whiteSpace=wrap;html=1;aspect=fixed;" vertex="1" parent="1">
          <mxGeometry x="-430.25" y="892" width="29" height="29" as="geometry" />
        </mxCell>
        <mxCell id="gNrTe1KFX9AmqMrSOkW9-111" value="Rating" style="text;html=1;align=center;verticalAlign=middle;resizable=0;points=[];autosize=1;strokeColor=none;fillColor=none;" vertex="1" parent="1">
          <mxGeometry x="-404.75" y="893.5" width="53" height="26" as="geometry" />
        </mxCell>
        <mxCell id="gNrTe1KFX9AmqMrSOkW9-112" value="" style="ellipse;whiteSpace=wrap;html=1;aspect=fixed;" vertex="1" parent="1">
          <mxGeometry x="-430.25" y="926" width="29" height="29" as="geometry" />
        </mxCell>
        <mxCell id="gNrTe1KFX9AmqMrSOkW9-113" value="ReviewDate" style="text;html=1;align=center;verticalAlign=middle;resizable=0;points=[];autosize=1;strokeColor=none;fillColor=none;" vertex="1" parent="1">
          <mxGeometry x="-405.75" y="927.5" width="83" height="26" as="geometry" />
        </mxCell>
        <mxCell id="gNrTe1KFX9AmqMrSOkW9-139" value="Impiega" style="rhombus;whiteSpace=wrap;html=1;" vertex="1" parent="1">
          <mxGeometry x="-177" y="55" width="64" height="64" as="geometry" />
        </mxCell>
        <mxCell id="gNrTe1KFX9AmqMrSOkW9-140" style="edgeStyle=orthogonalEdgeStyle;rounded=0;orthogonalLoop=1;jettySize=auto;html=1;entryX=0;entryY=0.5;entryDx=0;entryDy=0;" edge="1" parent="1" source="gNrTe1KFX9AmqMrSOkW9-145" target="gNrTe1KFX9AmqMrSOkW9-154">
          <mxGeometry relative="1" as="geometry" />
        </mxCell>
        <mxCell id="gNrTe1KFX9AmqMrSOkW9-141" style="edgeStyle=orthogonalEdgeStyle;rounded=0;orthogonalLoop=1;jettySize=auto;html=1;entryX=0;entryY=0.5;entryDx=0;entryDy=0;" edge="1" parent="1" source="gNrTe1KFX9AmqMrSOkW9-145" target="gNrTe1KFX9AmqMrSOkW9-146">
          <mxGeometry relative="1" as="geometry" />
        </mxCell>
        <mxCell id="gNrTe1KFX9AmqMrSOkW9-142" style="edgeStyle=orthogonalEdgeStyle;rounded=0;orthogonalLoop=1;jettySize=auto;html=1;entryX=0;entryY=0.5;entryDx=0;entryDy=0;" edge="1" parent="1" source="gNrTe1KFX9AmqMrSOkW9-145" target="gNrTe1KFX9AmqMrSOkW9-150">
          <mxGeometry relative="1" as="geometry" />
        </mxCell>
        <mxCell id="gNrTe1KFX9AmqMrSOkW9-143" style="edgeStyle=orthogonalEdgeStyle;rounded=0;orthogonalLoop=1;jettySize=auto;html=1;entryX=0;entryY=0.5;entryDx=0;entryDy=0;" edge="1" parent="1" source="gNrTe1KFX9AmqMrSOkW9-145" target="gNrTe1KFX9AmqMrSOkW9-151">
          <mxGeometry relative="1" as="geometry" />
        </mxCell>
        <mxCell id="gNrTe1KFX9AmqMrSOkW9-144" style="edgeStyle=orthogonalEdgeStyle;rounded=0;orthogonalLoop=1;jettySize=auto;html=1;entryX=0;entryY=0.5;entryDx=0;entryDy=0;" edge="1" parent="1" source="gNrTe1KFX9AmqMrSOkW9-145" target="gNrTe1KFX9AmqMrSOkW9-152">
          <mxGeometry relative="1" as="geometry" />
        </mxCell>
        <mxCell id="gNrTe1KFX9AmqMrSOkW9-160" style="edgeStyle=orthogonalEdgeStyle;rounded=0;orthogonalLoop=1;jettySize=auto;html=1;exitX=0.25;exitY=0;exitDx=0;exitDy=0;entryX=0.5;entryY=1;entryDx=0;entryDy=0;" edge="1" parent="1" source="gNrTe1KFX9AmqMrSOkW9-145" target="gNrTe1KFX9AmqMrSOkW9-139">
          <mxGeometry relative="1" as="geometry" />
        </mxCell>
        <mxCell id="gNrTe1KFX9AmqMrSOkW9-145" value="Employee" style="rounded=0;whiteSpace=wrap;html=1;" vertex="1" parent="1">
          <mxGeometry x="-175" y="221" width="120" height="40" as="geometry" />
        </mxCell>
        <mxCell id="gNrTe1KFX9AmqMrSOkW9-146" value="" style="ellipse;whiteSpace=wrap;html=1;aspect=fixed;" vertex="1" parent="1">
          <mxGeometry x="-66" y="304" width="29" height="29" as="geometry" />
        </mxCell>
        <mxCell id="gNrTe1KFX9AmqMrSOkW9-147" value="CinemaID" style="text;html=1;align=center;verticalAlign=middle;resizable=0;points=[];autosize=1;strokeColor=none;fillColor=none;" vertex="1" parent="1">
          <mxGeometry x="-45.5" y="307" width="71" height="26" as="geometry" />
        </mxCell>
        <mxCell id="gNrTe1KFX9AmqMrSOkW9-148" value="" style="ellipse;whiteSpace=wrap;html=1;aspect=fixed;" vertex="1" parent="1">
          <mxGeometry x="-66" y="338.5" width="29" height="29" as="geometry" />
        </mxCell>
        <mxCell id="gNrTe1KFX9AmqMrSOkW9-149" value="FirstName" style="text;html=1;align=center;verticalAlign=middle;resizable=0;points=[];autosize=1;strokeColor=none;fillColor=none;" vertex="1" parent="1">
          <mxGeometry x="-45.5" y="342" width="73" height="26" as="geometry" />
        </mxCell>
        <mxCell id="gNrTe1KFX9AmqMrSOkW9-150" value="" style="ellipse;whiteSpace=wrap;html=1;aspect=fixed;" vertex="1" parent="1">
          <mxGeometry x="-66" y="377" width="29" height="29" as="geometry" />
        </mxCell>
        <mxCell id="gNrTe1KFX9AmqMrSOkW9-151" value="" style="ellipse;whiteSpace=wrap;html=1;aspect=fixed;" vertex="1" parent="1">
          <mxGeometry x="-66" y="411" width="29" height="29" as="geometry" />
        </mxCell>
        <mxCell id="gNrTe1KFX9AmqMrSOkW9-152" value="" style="ellipse;whiteSpace=wrap;html=1;aspect=fixed;" vertex="1" parent="1">
          <mxGeometry x="-66" y="446" width="29" height="29" as="geometry" />
        </mxCell>
        <mxCell id="gNrTe1KFX9AmqMrSOkW9-153" value="HireDate" style="text;html=1;align=center;verticalAlign=middle;resizable=0;points=[];autosize=1;strokeColor=none;fillColor=none;" vertex="1" parent="1">
          <mxGeometry x="-45" y="447.5" width="65" height="26" as="geometry" />
        </mxCell>
        <mxCell id="gNrTe1KFX9AmqMrSOkW9-154" value="" style="ellipse;whiteSpace=wrap;html=1;aspect=fixed;" vertex="1" parent="1">
          <mxGeometry x="-68" y="271" width="29" height="29" as="geometry" />
        </mxCell>
        <mxCell id="gNrTe1KFX9AmqMrSOkW9-155" value="&lt;span style=&quot;text-wrap: wrap;&quot;&gt;EmployeeID&lt;/span&gt;" style="text;html=1;align=center;verticalAlign=middle;resizable=0;points=[];autosize=1;strokeColor=none;fillColor=none;" vertex="1" parent="1">
          <mxGeometry x="-48" y="275" width="83" height="26" as="geometry" />
        </mxCell>
        <mxCell id="gNrTe1KFX9AmqMrSOkW9-156" value="LastName" style="text;html=1;align=center;verticalAlign=middle;resizable=0;points=[];autosize=1;strokeColor=none;fillColor=none;" vertex="1" parent="1">
          <mxGeometry x="-41" y="380" width="73" height="26" as="geometry" />
        </mxCell>
        <mxCell id="gNrTe1KFX9AmqMrSOkW9-157" value="Position" style="text;html=1;align=center;verticalAlign=middle;resizable=0;points=[];autosize=1;strokeColor=none;fillColor=none;" vertex="1" parent="1">
          <mxGeometry x="-39" y="412.5" width="61" height="26" as="geometry" />
        </mxCell>
        <mxCell id="gNrTe1KFX9AmqMrSOkW9-158" style="edgeStyle=orthogonalEdgeStyle;rounded=0;orthogonalLoop=1;jettySize=auto;html=1;entryX=0;entryY=0.534;entryDx=0;entryDy=0;entryPerimeter=0;" edge="1" parent="1" source="gNrTe1KFX9AmqMrSOkW9-145" target="gNrTe1KFX9AmqMrSOkW9-148">
          <mxGeometry relative="1" as="geometry" />
        </mxCell>
        <mxCell id="gNrTe1KFX9AmqMrSOkW9-161" value="" style="endArrow=none;html=1;rounded=0;" edge="1" parent="1">
          <mxGeometry width="50" height="50" relative="1" as="geometry">
            <mxPoint x="-265" y="42" as="sourcePoint" />
            <mxPoint x="-265" y="81" as="targetPoint" />
          </mxGeometry>
        </mxCell>
        <mxCell id="gNrTe1KFX9AmqMrSOkW9-162" value="Contiene" style="rhombus;whiteSpace=wrap;html=1;" vertex="1" parent="1">
          <mxGeometry x="-570" y="35" width="80" height="80" as="geometry" />
        </mxCell>
        <mxCell id="gNrTe1KFX9AmqMrSOkW9-165" value="" style="endArrow=none;html=1;rounded=0;" edge="1" parent="1">
          <mxGeometry width="50" height="50" relative="1" as="geometry">
            <mxPoint x="-409" y="99" as="sourcePoint" />
            <mxPoint x="-411" y="50" as="targetPoint" />
          </mxGeometry>
        </mxCell>
        <mxCell id="gNrTe1KFX9AmqMrSOkW9-168" value="" style="endArrow=none;html=1;rounded=0;" edge="1" parent="1">
          <mxGeometry width="50" height="50" relative="1" as="geometry">
            <mxPoint x="-781" y="629" as="sourcePoint" />
            <mxPoint x="-726" y="629.5" as="targetPoint" />
          </mxGeometry>
        </mxCell>
        <mxCell id="gNrTe1KFX9AmqMrSOkW9-169" value="" style="endArrow=none;html=1;rounded=0;" edge="1" parent="1">
          <mxGeometry width="50" height="50" relative="1" as="geometry">
            <mxPoint x="-827" y="131.17000000000002" as="sourcePoint" />
            <mxPoint x="-772" y="131.67000000000002" as="targetPoint" />
          </mxGeometry>
        </mxCell>
        <mxCell id="gNrTe1KFX9AmqMrSOkW9-170" value="ha" style="rhombus;whiteSpace=wrap;html=1;" vertex="1" parent="1">
          <mxGeometry x="-449" y="378" width="63" height="62" as="geometry" />
        </mxCell>
        <mxCell id="gNrTe1KFX9AmqMrSOkW9-173" value="" style="endArrow=none;html=1;rounded=0;" edge="1" parent="1">
          <mxGeometry width="50" height="50" relative="1" as="geometry">
            <mxPoint x="-558" y="434.5" as="sourcePoint" />
            <mxPoint x="-558" y="380.5" as="targetPoint" />
          </mxGeometry>
        </mxCell>
        <mxCell id="gNrTe1KFX9AmqMrSOkW9-176" value="" style="endArrow=none;html=1;rounded=0;" edge="1" parent="1">
          <mxGeometry width="50" height="50" relative="1" as="geometry">
            <mxPoint x="-594" y="726" as="sourcePoint" />
            <mxPoint x="-594" y="672" as="targetPoint" />
          </mxGeometry>
        </mxCell>
      </root>
    </mxGraphModel>
  </diagram>
</mxfile>
